<svg width="85" height="58" viewBox="0 0 85 58" fill="none" xmlns="http://www.w3.org/2000/svg" xmlns:xlink="http://www.w3.org/1999/xlink">
<path d="M51.2404 26.7621C51.2619 26.5057 51.4848 26.315 51.7384 26.3362C51.9919 26.3574 52.1801 26.5825 52.1587 26.8389C52.1372 27.0954 51.9143 27.2861 51.6607 27.2649C51.4071 27.2437 51.219 27.0186 51.2404 26.7621Z" fill="#56003C"/>
<mask id="mask0_141_42" style="mask-type:alpha" maskUnits="userSpaceOnUse" x="4" y="2" width="78" height="53">
<path d="M46.8558 23.7256C48.1675 23.9422 49.0586 25.1604 48.8462 26.4465C48.6338 27.7325 47.3983 28.5995 46.0866 28.3829C44.7749 28.1662 43.8838 26.9481 44.0962 25.662C44.3086 24.3759 45.5441 23.509 46.8558 23.7256Z" fill="#7D0058"/>
<path fill-rule="evenodd" clip-rule="evenodd" d="M30.1779 19.6298C30.988 21.0006 31.3705 22.582 31.2766 24.1716L28.7282 24.2804C28.77 23.5736 28.0776 23.0245 27.3811 23.1521C25.2996 23.5334 21.4808 23.74 19.558 20.7435C16.8332 16.4971 20.558 11.7435 20.558 11.7435C21.6314 12.3963 22.2018 12.7386 25.413 11.5663L30.1779 19.6298ZM34.0604 39.0627C34.1727 39.4821 34.2054 39.9705 34.1404 40.5284C35.8593 39.491 40.2671 37.2009 45.2898 37.2009C49.8636 37.2009 53.8858 38.1867 57.5517 39.0852C60.6208 39.8374 63.4401 40.5284 66.1242 40.5284C72.0142 40.5284 74.6663 36.4926 74.7906 32.199C74.9049 28.2495 73.8753 26.7215 72.6143 24.8501C72.3125 24.4022 71.9974 23.9346 71.6816 23.4095L69.8926 21.5662C69.4849 25.3659 69.3169 28.7991 69.3749 32.1625C69.4 33.6187 68.2087 34.8224 66.7538 34.7552C65.4687 34.6957 64.4431 33.6566 64.4157 32.3705C64.3259 28.1547 64.4393 25.8282 64.9607 20.9691C65.0995 19.6749 66.2259 18.7137 67.5261 18.7738L68.217 16.7575C67.7144 16.8416 67.2444 16.9237 67.0008 16.9755C64.9071 17.4203 63.1974 18.6456 62.5027 23.0917L61.9453 26.6592C61.7192 28.1063 60.3629 29.096 58.9158 28.8699C57.3952 28.6324 56.3986 27.1543 56.7183 25.6489C57.7154 20.9541 58.3682 16.7761 58.8508 12.0009L55.667 8.42708C55.3249 9.8456 54.3621 11.5592 53.0253 13.3648C51.0034 12.3854 49.3556 11.314 48.3945 10.2161L44.7819 12.7081L39.0986 20.1568C38.1328 21.4228 37.5666 22.9481 37.4727 24.5377L37.0751 31.2668C37.0602 31.5192 37.0813 31.7115 37.1226 31.8554C37.0347 31.8409 36.9331 31.8295 36.8164 31.8226L34.0604 39.0627ZM37.5839 32.2054C37.485 32.2801 37.2324 32.2382 37.1226 31.8554C37.6278 31.9393 37.6827 32.1307 37.5839 32.2054ZM45.7713 33.678C41.5316 32.9778 38.6596 29.0344 39.3461 24.8775C40.0326 20.7206 44.02 17.9101 48.2597 18.6103C48.5917 18.6651 48.9153 18.7398 49.2294 18.8329C49.602 18.9434 50.0077 18.7405 50.1112 18.3659C50.5227 16.8762 52.0058 15.9626 53.5307 16.2144C55.4041 16.5238 56.5729 18.443 56.1264 20.2885C55.56 22.6294 54.9706 25.778 55.0417 28.5328C55.0551 29.0519 55.2401 29.9409 55.4866 30.9138C56.0217 33.0255 54.2644 35.0806 52.1151 34.7256C51.284 34.5884 50.5922 34.0119 50.3236 33.2136C50.3021 33.1498 50.2302 33.1184 50.1684 33.1452C48.8355 33.721 47.3202 33.9338 45.7713 33.678Z" fill="#7D0058"/>
<path d="M34.1404 40.5284C29.1628 43.5323 27.5274 45.1639 24.8019 47.8832M34.1404 40.5284C35.8593 39.491 40.2671 37.2009 45.2898 37.2009C49.8636 37.2009 53.8858 38.1867 57.5517 39.0852C60.6208 39.8374 63.4401 40.5284 66.1242 40.5284C72.0142 40.5284 74.6663 36.4926 74.7906 32.199C74.9049 28.2495 73.8753 26.7215 72.6143 24.8501C72.3125 24.4022 71.9974 23.9346 71.6816 23.4095M34.1404 40.5284C34.2054 39.9705 34.1727 39.4821 34.0604 39.0627M34.1404 40.5284L34.0604 39.0627M71.6816 23.4095L69.8926 21.5662M71.6816 23.4095L74.3842 21.7982C75.3304 21.2342 76.57 21.5323 77.0974 22.4994C78.3202 24.7418 79.3312 27.4231 79.3312 32.199C79.3312 38.7253 75.1947 44.0761 67.1242 44.0761C59.0538 44.0761 54.5572 39.9507 45.2898 39.9507C39.5199 39.9507 35.159 42.4446 35.159 42.4446C39.7392 43.5496 39.5725 50.0586 35.159 50.0586C33.6257 50.0586 30.7981 49.5147 29.1628 49.5147C27.5274 49.5147 24.2568 50.0586 21.5312 51.6902C21.8753 49.9528 22.4206 47.9449 23.1466 45.9884C23.8168 44.1824 24.6408 42.4202 25.6027 40.9549C26.0352 40.2961 26.4956 39.6972 26.9823 39.1814C27.3056 38.8388 27.6703 38.5213 28.0416 38.2348C29.5432 37.076 30.6983 35.4017 30.6983 33.505V33.0524C30.6983 30.3431 27.7175 28.7464 25.3785 30.1137C23.9381 30.9007 22.7563 32.1693 21.558 34.2206C20.2822 28.5309 20.058 28.2206 15.058 25.2206C10.058 22.2206 6.55802 22.8037 6.55802 22.8037C6.55802 22.8037 9.82802 20.3202 10.1523 14.8298C10.4766 9.33937 7.65229 5.82981 7.65229 5.82981C12.1523 5.82981 18.1523 8.2435 20.558 11.7435M20.558 11.7435C20.558 11.7435 16.8332 16.4971 19.558 20.7435C21.4808 23.74 25.2996 23.5334 27.3811 23.1521C28.0776 23.0245 28.77 23.5736 28.7282 24.2804L31.2766 24.1716M20.558 11.7435C21.6314 12.3963 22.2018 12.7386 25.413 11.5663M58.8508 12.0009C58.3682 16.7761 57.7154 20.9541 56.7183 25.6489C56.3986 27.1543 57.3952 28.6324 58.9158 28.8699C60.3629 29.096 61.7192 28.1063 61.9453 26.6592L62.5027 23.0917C63.1974 18.6456 64.9071 17.4203 67.0008 16.9755C67.2444 16.9237 67.7144 16.8416 68.217 16.7575M58.8508 12.0009C59.0055 10.4696 60.4055 9.36611 61.9261 9.60369C63.3731 9.82979 64.3629 11.1861 64.1368 12.6332C64.0885 12.9424 64.4525 13.1773 64.7268 13.0266C65.4164 12.6478 66.5326 12.1473 67.7727 12.0354C67.9268 12.0215 68.0749 12.0095 68.217 11.9992C69.65 11.8955 70.6341 13.1552 70.4123 14.5746C70.2377 15.6922 69.3603 16.5665 68.2446 16.7529C68.2354 16.7544 68.2262 16.7559 68.217 16.7575M58.8508 12.0009L55.667 8.42708M69.8926 21.5662C69.4849 25.3659 69.3169 28.7991 69.3749 32.1625C69.4 33.6187 68.2087 34.8224 66.7538 34.7552C65.4687 34.6957 64.4431 33.6566 64.4157 32.3705C64.3259 28.1547 64.4393 25.8282 64.9607 20.9691C65.0995 19.6749 66.2259 18.7137 67.5261 18.7738M69.8926 21.5662C70.047 20.1281 68.971 18.8406 67.5261 18.7738M67.5261 18.7738L68.217 16.7575M25.413 11.5663C27.2738 14.7153 30.1779 19.6298 30.1779 19.6298M25.413 11.5663C24.5686 10.1374 25.0427 8.29453 26.4718 7.4505C27.9009 6.60652 29.7435 7.08095 30.5873 8.51011L34.8811 15.783L40.007 9.06487C41.0132 7.74606 42.8981 7.49291 44.2167 8.49949C45.5347 9.50569 45.7878 11.3898 44.7819 12.7081M25.413 11.5663L30.1779 19.6298M44.7819 12.7081L39.0986 20.1568C38.1328 21.4228 37.5666 22.9481 37.4727 24.5377L37.0751 31.2668C37.0602 31.5192 37.0813 31.7115 37.1226 31.8554M44.7819 12.7081L48.3945 10.2161M36.8164 31.8226C35.1054 31.7215 33.6929 31.448 33.794 29.737L32.4151 25.8418L31.2766 24.1716M36.8164 31.8226L34.0604 39.0627M36.8164 31.8226C36.9331 31.8295 37.0347 31.8409 37.1226 31.8554M36.8164 31.8226C37.6041 31.8692 37.6999 32.1177 37.5839 32.2054M31.2766 24.1716C31.3705 22.582 30.988 21.0006 30.1779 19.6298M48.3945 10.2161C48.2036 9.99802 48.0614 9.73386 47.9879 9.43533C47.7357 8.40993 48.3905 7.3673 49.4504 7.10656C50.5104 6.84581 51.301 7.38969 51.7122 8.02692C51.7809 7.27166 52.229 6.42305 53.2889 6.1623C54.3489 5.90156 55.4127 6.52143 55.6649 7.54683C55.7383 7.84536 55.7349 8.14535 55.667 8.42708M48.3945 10.2161C49.3556 11.314 51.0034 12.3854 53.0253 13.3648C54.3621 11.5592 55.3249 9.8456 55.667 8.42708M37.1226 31.8554C37.2324 32.2382 37.485 32.2801 37.5839 32.2054M37.1226 31.8554C37.6278 31.9393 37.6827 32.1307 37.5839 32.2054M39.3461 24.8775C38.6596 29.0344 41.5316 32.9778 45.7713 33.678C47.3202 33.9338 48.8355 33.721 50.1684 33.1452C50.2302 33.1184 50.3021 33.1498 50.3236 33.2136C50.5922 34.0119 51.284 34.5884 52.1151 34.7256C54.2644 35.0806 56.0217 33.0255 55.4866 30.9138C55.2401 29.9409 55.0551 29.0519 55.0417 28.5328C54.9706 25.778 55.56 22.6294 56.1264 20.2885C56.5729 18.443 55.4041 16.5238 53.5307 16.2144C52.0058 15.9626 50.5227 16.8762 50.1112 18.3659C50.0077 18.7405 49.602 18.9434 49.2294 18.8329C48.9153 18.7398 48.5917 18.6651 48.2597 18.6103C44.02 17.9101 40.0326 20.7206 39.3461 24.8775ZM46.8558 23.7256C48.1675 23.9422 49.0586 25.1604 48.8462 26.4465C48.6338 27.7325 47.3983 28.5995 46.0866 28.3829C44.7749 28.1662 43.8838 26.9481 44.0962 25.662C44.3086 24.3759 45.5441 23.509 46.8558 23.7256ZM66.9847 5.32657C65.6055 5.26279 64.4357 6.32919 64.3719 7.70843C64.3081 9.08766 65.3745 10.2575 66.7538 10.3212C68.133 10.385 69.3028 9.31862 69.3666 7.93938C69.4303 6.56014 68.364 5.39035 66.9847 5.32657Z" stroke="#84005D" stroke-width="5" stroke-miterlimit="16" stroke-linecap="round" stroke-linejoin="round"/>
</mask>
<g mask="url(#mask0_141_42)">
<path d="M-2.7433 59.8068V-1.10468H85.7879V59.8068H-2.7433Z" fill="url(#paint0_radial_141_42)"/>
</g>
<path fill-rule="evenodd" clip-rule="evenodd" d="M19.125 10.8975L22.7065 11.6287L23.2138 9.34446H25.4193L34.025 20.1903L43.5122 10.4661L46.6671 10.1947L49.8962 8.50333L56.0492 9.27826L59.9971 10.9531L61.2976 12.6005L63.6726 14.9723L67.8332 15.1272L68.2959 20.5735H70.1674L72.2976 21.7301L74.8201 24.5781L78.0221 33.591L73.2976 39.7577L68.2976 41.5366H59.2976L48.8488 38.809H40.9032L34.025 41.5366L24.0423 46.6577L23.1903 46.3331L28.8672 38.809L29.201 35.4111L30.4582 35.0128L30.5329 33.7182L29.0765 33.5315V31.9382L27.7015 30.8896L26.2933 30.5844L26.0076 29.0703L14.5761 19.4661L19.125 10.8975Z" fill="url(#pattern0_141_42)"/>
<g filter="url(#filter0_d_141_42)">
<path d="M30.2746 19.6559C31.0847 21.0268 31.4672 22.6082 31.3733 24.1977L30.9757 30.9269C30.8746 32.6379 32.1797 34.1069 33.8907 34.208C35.6017 34.3091 37.0707 33.004 37.1718 31.293L37.5694 24.5638C37.6633 22.9743 38.2295 21.4489 39.1954 20.183L44.8786 12.7342C45.8845 11.4159 45.6314 9.53185 44.3134 8.52564C42.9948 7.51906 41.1099 7.77222 40.1037 9.09102L34.9778 15.8092L30.684 8.53626C29.8402 7.10711 27.9976 6.63268 26.5685 7.47665C25.1394 8.32069 24.6653 10.1636 25.5097 11.5925L30.2746 19.6559Z" fill="url(#paint1_linear_141_42)"/>
<path fill-rule="evenodd" clip-rule="evenodd" d="M39.4428 24.9037C38.7563 29.0605 41.6283 33.0039 45.868 33.7041C47.4169 33.9599 48.9322 33.7471 50.2651 33.1713C50.3269 33.1446 50.3988 33.1759 50.4203 33.2398C50.6889 34.0381 51.3808 34.6146 52.2118 34.7518C54.3611 35.1068 56.1184 33.0517 55.5833 30.9399C55.3368 29.9671 55.1519 29.078 55.1384 28.559C55.0673 25.8042 55.6567 22.6555 56.2231 20.3147C56.6696 18.4691 55.5008 16.55 53.6274 16.2406C52.1025 15.9887 50.6195 16.9024 50.2079 18.3921C50.1044 18.7666 49.6987 18.9696 49.3262 18.8591C49.012 18.766 48.6884 18.6912 48.3564 18.6364C44.1167 17.9362 40.1293 20.7468 39.4428 24.9037ZM48.943 26.4726C49.1553 25.1865 48.2642 23.9684 46.9525 23.7517C45.6408 23.5351 44.4053 24.4021 44.1929 25.6881C43.9805 26.9742 44.8716 28.1924 46.1833 28.409C47.495 28.6256 48.7306 27.7587 48.943 26.4726Z" fill="url(#paint2_linear_141_42)"/>
<path d="M58.9475 12.027C58.4649 16.8023 57.8121 20.9802 56.815 25.6751C56.4953 27.1805 57.4919 28.6585 59.0125 28.8961C60.4596 29.1222 61.8159 28.1324 62.042 26.6854L62.5994 23.1178C63.2941 18.6718 65.0038 17.4464 67.0975 17.0016C67.3455 16.9489 67.8283 16.8647 68.3413 16.779C69.457 16.5927 70.3344 15.7184 70.509 14.6008C70.7308 13.1814 69.7467 11.9217 68.3138 12.0254C68.1716 12.0357 68.0235 12.0476 67.8694 12.0616C66.6293 12.1734 65.5131 12.6739 64.8235 13.0528C64.5492 13.2035 64.1852 12.9686 64.2335 12.6594C64.4596 11.2123 63.4698 9.85594 62.0228 9.62985C60.5022 9.39226 59.1022 10.4958 58.9475 12.027Z" fill="url(#paint3_linear_141_42)"/>
<path d="M64.4686 7.73458C64.4048 9.11382 65.4712 10.2836 66.8505 10.3474C68.2297 10.4112 69.3995 9.34477 69.4633 7.96553C69.5271 6.5863 68.4607 5.4165 67.0814 5.35273C65.7022 5.28895 64.5324 6.35534 64.4686 7.73458Z" fill="url(#paint4_linear_141_42)"/>
<path d="M65.0574 20.9953C64.5361 25.8544 64.4226 28.1809 64.5124 32.3966C64.5399 33.6827 65.5654 34.7219 66.8505 34.7813C68.3054 34.8486 69.4967 33.6449 69.4716 32.1886C69.4136 28.8253 69.5817 25.392 69.9893 21.5924C70.1437 20.1542 69.0677 18.8667 67.6228 18.7999C66.3226 18.7398 65.1962 19.7011 65.0574 20.9953Z" fill="url(#paint5_linear_141_42)"/>
<path d="M30.2746 19.6559C31.0847 21.0268 31.4672 22.6082 31.3733 24.1977L30.9757 30.9269C30.8746 32.6379 32.1797 34.1069 33.8907 34.208C35.6017 34.3091 37.0707 33.004 37.1718 31.293L37.5694 24.5638C37.6633 22.9743 38.2295 21.4489 39.1954 20.183L44.8786 12.7342C45.8845 11.4159 45.6314 9.53185 44.3134 8.52564C42.9948 7.51906 41.1099 7.77222 40.1037 9.09102L34.9778 15.8092L30.684 8.53626C29.8402 7.10711 27.9976 6.63268 26.5685 7.47665C25.1394 8.32069 24.6653 10.1636 25.5097 11.5925L30.2746 19.6559Z" stroke="#FFC6E5" stroke-width="0.7"/>
<path fill-rule="evenodd" clip-rule="evenodd" d="M39.4428 24.9037C38.7563 29.0605 41.6283 33.0039 45.868 33.7041C47.4169 33.9599 48.9322 33.7471 50.2651 33.1713C50.3269 33.1446 50.3988 33.1759 50.4203 33.2398C50.6889 34.0381 51.3808 34.6146 52.2118 34.7518C54.3611 35.1068 56.1184 33.0517 55.5833 30.9399C55.3368 29.9671 55.1519 29.078 55.1384 28.559C55.0673 25.8042 55.6567 22.6555 56.2231 20.3147C56.6696 18.4691 55.5008 16.55 53.6274 16.2406C52.1025 15.9887 50.6195 16.9024 50.2079 18.3921C50.1044 18.7666 49.6987 18.9696 49.3262 18.8591C49.012 18.766 48.6884 18.6912 48.3564 18.6364C44.1167 17.9362 40.1293 20.7468 39.4428 24.9037ZM48.943 26.4726C49.1553 25.1865 48.2642 23.9684 46.9525 23.7517C45.6408 23.5351 44.4053 24.4021 44.1929 25.6881C43.9805 26.9742 44.8716 28.1924 46.1833 28.409C47.495 28.6256 48.7306 27.7587 48.943 26.4726Z" stroke="#FFC6E5" stroke-width="0.7"/>
<path d="M58.9475 12.027C58.4649 16.8023 57.8121 20.9802 56.815 25.6751C56.4953 27.1805 57.4919 28.6585 59.0125 28.8961C60.4596 29.1222 61.8159 28.1324 62.042 26.6854L62.5994 23.1178C63.2941 18.6718 65.0038 17.4464 67.0975 17.0016C67.3455 16.9489 67.8283 16.8647 68.3413 16.779C69.457 16.5927 70.3344 15.7184 70.509 14.6008C70.7308 13.1814 69.7467 11.9217 68.3138 12.0254C68.1716 12.0357 68.0235 12.0476 67.8694 12.0616C66.6293 12.1734 65.5131 12.6739 64.8235 13.0528C64.5492 13.2035 64.1852 12.9686 64.2335 12.6594C64.4596 11.2123 63.4698 9.85594 62.0228 9.62985C60.5022 9.39226 59.1022 10.4958 58.9475 12.027Z" stroke="#FFC6E5" stroke-width="0.7"/>
<path d="M64.4686 7.73458C64.4048 9.11382 65.4712 10.2836 66.8505 10.3474C68.2297 10.4112 69.3995 9.34477 69.4633 7.96553C69.5271 6.5863 68.4607 5.4165 67.0814 5.35273C65.7022 5.28895 64.5324 6.35534 64.4686 7.73458Z" stroke="#FFC6E5" stroke-width="0.7"/>
<path d="M65.0574 20.9953C64.5361 25.8544 64.4226 28.1809 64.5124 32.3966C64.5399 33.6827 65.5654 34.7219 66.8505 34.7813C68.3054 34.8486 69.4967 33.6449 69.4716 32.1886C69.4136 28.8253 69.5817 25.392 69.9893 21.5924C70.1437 20.1542 69.0677 18.8667 67.6228 18.7999C66.3226 18.7398 65.1962 19.7011 65.0574 20.9953Z" stroke="#FFC6E5" stroke-width="0.7"/>
<path d="M30.2746 19.6559C31.0847 21.0268 31.4672 22.6082 31.3733 24.1977L30.9757 30.9269C30.8746 32.6379 32.1797 34.1069 33.8907 34.208C35.6017 34.3091 37.0707 33.004 37.1718 31.293L37.5694 24.5638C37.6633 22.9743 38.2295 21.4489 39.1954 20.183L44.8786 12.7342C45.8845 11.4159 45.6314 9.53185 44.3134 8.52564C42.9948 7.51906 41.1099 7.77222 40.1037 9.09102L34.9778 15.8092L30.684 8.53626C29.8402 7.10711 27.9976 6.63268 26.5685 7.47665C25.1394 8.32069 24.6653 10.1636 25.5097 11.5925L30.2746 19.6559Z" stroke="#FFC6E5" stroke-width="0.7"/>
<path fill-rule="evenodd" clip-rule="evenodd" d="M39.4428 24.9037C38.7563 29.0605 41.6283 33.0039 45.868 33.7041C47.4169 33.9599 48.9322 33.7471 50.2651 33.1713C50.3269 33.1446 50.3988 33.1759 50.4203 33.2398C50.6889 34.0381 51.3808 34.6146 52.2118 34.7518C54.3611 35.1068 56.1184 33.0517 55.5833 30.9399C55.3368 29.9671 55.1519 29.078 55.1384 28.559C55.0673 25.8042 55.6567 22.6555 56.2231 20.3147C56.6696 18.4691 55.5008 16.55 53.6274 16.2406C52.1025 15.9887 50.6195 16.9024 50.2079 18.3921C50.1044 18.7666 49.6987 18.9696 49.3262 18.8591C49.012 18.766 48.6884 18.6912 48.3564 18.6364C44.1167 17.9362 40.1293 20.7468 39.4428 24.9037ZM48.943 26.4726C49.1553 25.1865 48.2642 23.9684 46.9525 23.7517C45.6408 23.5351 44.4053 24.4021 44.1929 25.6881C43.9805 26.9742 44.8716 28.1924 46.1833 28.409C47.495 28.6256 48.7306 27.7587 48.943 26.4726Z" stroke="#FFC6E5" stroke-width="0.7"/>
<path d="M58.9475 12.027C58.4649 16.8023 57.8121 20.9802 56.815 25.6751C56.4953 27.1805 57.4919 28.6585 59.0125 28.8961C60.4596 29.1222 61.8159 28.1324 62.042 26.6854L62.5994 23.1178C63.2941 18.6718 65.0038 17.4464 67.0975 17.0016C67.3455 16.9489 67.8283 16.8647 68.3413 16.779C69.457 16.5927 70.3344 15.7184 70.509 14.6008C70.7308 13.1814 69.7467 11.9217 68.3138 12.0254C68.1716 12.0357 68.0235 12.0476 67.8694 12.0616C66.6293 12.1734 65.5131 12.6739 64.8235 13.0528C64.5492 13.2035 64.1852 12.9686 64.2335 12.6594C64.4596 11.2123 63.4698 9.85594 62.0228 9.62985C60.5022 9.39226 59.1022 10.4958 58.9475 12.027Z" stroke="#FFC6E5" stroke-width="0.7"/>
<path d="M64.4686 7.73458C64.4048 9.11382 65.4712 10.2836 66.8505 10.3474C68.2297 10.4112 69.3995 9.34477 69.4633 7.96553C69.527 6.5863 68.4607 5.4165 67.0814 5.35273C65.7022 5.28895 64.5324 6.35534 64.4686 7.73458Z" stroke="#FFC6E5" stroke-width="0.7"/>
<path d="M65.0574 20.9953C64.5361 25.8544 64.4226 28.1809 64.5124 32.3966C64.5399 33.6827 65.5654 34.7219 66.8505 34.7813C68.3054 34.8486 69.4967 33.6449 69.4716 32.1886C69.4136 28.8253 69.5817 25.392 69.9893 21.5924C70.1437 20.1542 69.0677 18.8667 67.6228 18.7999C66.3226 18.7398 65.1962 19.7011 65.0574 20.9953Z" stroke="#FFC6E5" stroke-width="0.7"/>
<path d="M53.1996 5.79809C54.4492 5.49088 55.725 6.21956 56.0295 7.45726C56.1176 7.81572 56.1127 8.17654 56.0312 8.51481C55.6712 10.0074 54.6727 11.77 53.3268 13.5879L53.1418 13.8376L52.8621 13.7023C50.8264 12.7162 49.1233 11.6182 48.112 10.4629C47.8829 10.2011 47.712 9.88338 47.6238 9.52501C47.3193 8.28722 48.1113 7.04979 49.361 6.74239C50.2622 6.52071 50.9989 6.79815 51.5187 7.24342C51.7725 6.60746 52.2979 6.0199 53.1996 5.79809Z" fill="#FF89B4" stroke="#FFC6E5" stroke-width="0.75"/>
<path d="M60.611 30.6811C61.3623 30.4386 62.1562 30.8748 62.3987 31.6259C62.4695 31.8453 62.4863 32.0704 62.4563 32.2846C62.3304 33.1859 61.8609 34.2587 61.2082 35.3646L61.0615 35.6131L60.7974 35.4972C59.6212 34.9815 58.6133 34.3854 57.9842 33.7278C57.8347 33.5715 57.7167 33.379 57.6459 33.1597C57.4037 32.4085 57.7928 31.5905 58.5441 31.3481C59.0096 31.1979 59.4164 31.2947 59.732 31.4932C59.8721 31.1477 60.1455 30.8313 60.611 30.6811Z" fill="#FF449E" stroke="#FFC6E5" stroke-width="0.65"/>
<path d="M35.159 42.4446C39.7392 43.5497 39.5725 50.0586 35.159 50.0586C33.6257 50.0586 30.7981 49.5147 29.1628 49.5147C27.5274 49.5147 24.2568 50.0586 21.5312 51.6902C22.3357 47.6279 24.1523 42.1804 26.9823 39.1814C29.8123 36.1824 34.6139 36.4621 34.1404 40.5284C34.9478 39.9974 40.2671 37.2009 45.2898 37.2009C53.6928 37.2009 60.2342 40.5284 66.1242 40.5284C72.0142 40.5284 74.6663 36.4926 74.7906 32.1989C74.8909 28.7321 74.1098 27.1311 73.0645 25.5258C72.299 24.3502 72.6365 22.814 73.8268 22.0718C75.0447 21.3124 76.6814 21.6799 77.3394 22.9553C78.4508 25.1095 79.3312 27.7423 79.3312 32.1989C79.3312 38.7253 75.1947 44.0761 67.1242 44.0761C59.0537 44.0761 54.5572 39.9507 45.2898 39.9507C39.5199 39.9507 35.159 42.4446 35.159 42.4446Z" fill="#CA008E"/>
<path d="M34.1404 40.5284C34.6139 36.4621 29.9003 36.0891 26.9823 39.1814C30.5312 37.6902 32.312 39.9507 30.7804 42.6902C31.718 42.0363 32.8098 41.3314 34.1404 40.5284Z" fill="#FF439E"/>
<path fill-rule="evenodd" clip-rule="evenodd" d="M27.6469 49.6274C32.5312 44.0761 37.5312 45.1902 36.6919 49.7419C39.5331 48.4247 39.1308 43.4029 35.159 42.4446C35.159 42.4446 39.5199 39.9507 45.2898 39.9507C50.0836 39.9507 53.6009 41.0546 56.9966 42.1203C60.1654 43.1148 63.2284 44.0761 67.1242 44.0761C75.1947 44.0761 79.3312 38.7253 79.3312 32.1989C79.3312 28.7344 78.2393 25.4475 77.3116 23.2803C76.686 21.8187 74.9259 21.3812 73.5778 22.224L73.1369 22.4996C72.3291 23.0046 72.0819 24.06 72.6142 24.8501C76.0312 22.1902 77.5312 26.3417 77.5312 32.1902C77.5312 38.0387 73.5312 42.4446 66.5312 42.4446C63.3197 42.4446 60.6344 41.6543 57.7278 40.799C54.2989 39.7899 50.562 38.6902 45.2898 38.6902C41.5312 38.6902 37.6404 39.8111 34.1404 41.8111C27.6469 45.5216 23.9146 50.5585 23.9146 50.5585C25.2472 50.0635 26.5648 49.7715 27.6469 49.6274Z" fill="#FF439E"/>
<path d="M34.1404 40.5284C29.1628 43.5323 27.5274 45.1639 24.8019 47.8832M34.1404 40.5284C34.6139 36.4621 29.9003 36.0891 26.9823 39.1814C24.2404 42.0871 22.3357 47.6279 21.5312 51.6902C24.2568 50.0586 27.5274 49.5147 29.1628 49.5147C30.7981 49.5147 33.6257 50.0586 35.159 50.0586C39.5725 50.0586 39.7392 43.5497 35.159 42.4446C35.159 42.4446 39.5199 39.9507 45.2898 39.9507C54.5572 39.9507 59.0537 44.0761 67.1242 44.0761C75.1947 44.0761 79.3312 38.7253 79.3312 32.1989C79.3312 27.7423 78.4508 25.1095 77.3394 22.9553C76.6814 21.6799 75.0447 21.3124 73.8268 22.0718C72.6365 22.814 72.299 24.3502 73.0645 25.5258C74.1098 27.1311 74.8909 28.7321 74.7906 32.1989C74.6663 36.4926 72.0142 40.5284 66.1242 40.5284C60.2342 40.5284 53.6928 37.2009 45.2898 37.2009C40.2671 37.2009 35.8593 39.491 34.1404 40.5284Z" stroke="#FFC6E5" stroke-width="0.8" stroke-miterlimit="16" stroke-linecap="round"/>
<path d="M28.7014 24.25C28.7431 23.5431 28.0508 22.9941 27.3543 23.1217C25.2728 23.5029 21.454 23.7095 19.5312 20.7131C16.8064 16.4667 20.5312 11.7131 20.5312 11.7131C18.1255 8.21308 12.1255 5.79938 7.62546 5.79938C7.62546 5.79938 10.4497 9.30895 10.1255 14.7994C9.80119 20.2898 6.53119 22.7732 6.53119 22.7732C6.53119 22.7732 10.0312 22.1902 15.0312 25.1902C20.0312 28.1902 21.5312 34.1902 21.5312 34.1902C21.5312 34.1902 23.2665 31.3022 25.3516 30.0833C26.908 29.1735 28.4349 28.7628 28.4349 28.7628L28.7014 24.25Z" fill="#CA008E"/>
<path fill-rule="evenodd" clip-rule="evenodd" d="M21.5312 22.5531C20.7679 22.1496 20.074 21.559 19.5312 20.7131C19.1774 20.1617 18.9323 19.6018 18.7737 19.0448C18.7737 19.0448 15.5492 19.6252 13.5312 20.1902C10.7252 20.9758 6.53119 22.7732 6.53119 22.7732C6.53119 22.7732 9.12258 22.3415 13.0312 24.1323C13.0312 24.1323 14.5312 22.9161 17.0312 22.5531C19.5312 22.1902 21.5312 22.5531 21.5312 22.5531ZM20.5312 11.7131C20.5312 11.7131 18.6695 14.0889 18.5412 16.9818C18.5412 16.9818 16.5312 16.1368 13.5312 16.6902C10.5312 17.2436 9.40821 18.415 9.40821 18.415C9.76974 17.3987 10.043 16.1964 10.1255 14.7994C10.4497 9.30895 7.62546 5.79938 7.62546 5.79938C12.1255 5.79938 18.1255 8.21308 20.5312 11.7131Z" fill="#FF439E"/>
<path d="M19.5312 20.7131C21.454 23.7095 25.2728 23.5029 27.3543 23.1217C28.0508 22.9941 28.7431 23.5431 28.7014 24.25L28.6754 24.6902C26.9702 25.1708 25.4355 25.3306 24.0769 25.2354C23.6206 25.2034 23.177 25.4451 23.0339 25.8795C22.0312 28.9254 22.0312 33.1902 22.0312 33.1902L21.5312 33.1902C21.5312 33.1902 21.1055 28.5073 21.2845 25.3777C21.31 24.9324 21.0539 24.5196 20.6574 24.315C19.2066 23.5664 18.1262 22.4261 17.4322 21.086C17.2376 20.71 16.8527 20.4569 16.4306 20.4896C11.6239 20.8622 7.53119 22.5902 7.53119 22.5902L7.53119 22.0902C7.53119 22.0902 11.4678 19.9906 15.7268 18.7973C16.2265 18.6573 16.5463 18.1699 16.5204 17.6516C16.4394 16.0323 16.8024 14.3582 17.6285 12.8542C17.8485 12.4537 17.8182 11.9489 17.4979 11.623C13.147 7.19549 8.54655 7.24779 8.21761 6.69017C7.87519 6.10971 7.62546 5.79938 7.62546 5.79938C12.1255 5.79938 18.1255 8.21308 20.5312 11.7131C20.5312 11.7131 16.8064 16.4667 19.5312 20.7131Z" fill="#FF89B4"/>
<path d="M28.7014 24.25C28.7431 23.5431 28.0508 22.9941 27.3543 23.1217C25.2728 23.5029 21.454 23.7095 19.5312 20.7131C16.8064 16.4667 20.5312 11.7131 20.5312 11.7131C18.1255 8.21308 12.1255 5.79938 7.62546 5.79938C7.62546 5.79938 10.4497 9.30895 10.1255 14.7994C9.80119 20.2898 6.53119 22.7732 6.53119 22.7732C6.53119 22.7732 10.0312 22.1902 15.0312 25.1902C20.0312 28.1902 21.5312 34.1902 21.5312 34.1902C21.5312 34.1902 23.2665 31.3022 25.3516 30.0833C26.908 29.1735 28.4349 28.7628 28.4349 28.7628L28.7014 24.25Z" stroke="#FFC6E5" stroke-width="0.8" stroke-miterlimit="16"/>
</g>
<defs>
<filter id="filter0_d_141_42" x="0" y="0" width="84.7312" height="57.496" filterUnits="userSpaceOnUse" color-interpolation-filters="sRGB">
<feFlood flood-opacity="0" result="BackgroundImageFix"/>
<feColorMatrix in="SourceAlpha" type="matrix" values="0 0 0 0 0 0 0 0 0 0 0 0 0 0 0 0 0 0 127 0" result="hardAlpha"/>
<feOffset/>
<feGaussianBlur stdDeviation="2.5"/>
<feComposite in2="hardAlpha" operator="out"/>
<feColorMatrix type="matrix" values="0 0 0 0 0.337255 0 0 0 0 0 0 0 0 0 0.235294 0 0 0 1 0"/>
<feBlend mode="normal" in2="BackgroundImageFix" result="effect1_dropShadow_141_42"/>
<feBlend mode="normal" in="SourceGraphic" in2="effect1_dropShadow_141_42" result="shape"/>
</filter>
<radialGradient id="paint0_radial_141_42" cx="0" cy="0" r="1" gradientUnits="userSpaceOnUse" gradientTransform="translate(45.0312 26.1902) rotate(128.541) scale(37.7161 55.9132)">
<stop stop-color="#84005D"/>
<stop offset="1" stop-color="#53003A"/>
</radialGradient>
<linearGradient id="paint1_linear_141_42" x1="48.0312" y1="7.69018" x2="48.0312" y2="34.1902" gradientUnits="userSpaceOnUse">
<stop offset="0.326823" stop-color="#FF89B4"/>
<stop offset="0.326923" stop-color="#FF439E"/>
<stop offset="0.687244" stop-color="#FF439E"/>
<stop offset="0.689902" stop-color="#CA008E"/>
</linearGradient>
<linearGradient id="paint2_linear_141_42" x1="48.0312" y1="7.69018" x2="48.0312" y2="34.1902" gradientUnits="userSpaceOnUse">
<stop offset="0.326823" stop-color="#FF89B4"/>
<stop offset="0.326923" stop-color="#FF439E"/>
<stop offset="0.687244" stop-color="#FF439E"/>
<stop offset="0.689902" stop-color="#CA008E"/>
</linearGradient>
<linearGradient id="paint3_linear_141_42" x1="48.0312" y1="7.69018" x2="48.0312" y2="34.1902" gradientUnits="userSpaceOnUse">
<stop offset="0.326823" stop-color="#FF89B4"/>
<stop offset="0.326923" stop-color="#FF439E"/>
<stop offset="0.687244" stop-color="#FF439E"/>
<stop offset="0.689902" stop-color="#CA008E"/>
</linearGradient>
<linearGradient id="paint4_linear_141_42" x1="48.0312" y1="7.69018" x2="48.0312" y2="34.1902" gradientUnits="userSpaceOnUse">
<stop offset="0.326823" stop-color="#FF89B4"/>
<stop offset="0.326923" stop-color="#FF439E"/>
<stop offset="0.687244" stop-color="#FF439E"/>
<stop offset="0.689902" stop-color="#CA008E"/>
</linearGradient>
<linearGradient id="paint5_linear_141_42" x1="48.0312" y1="7.69018" x2="48.0312" y2="34.1902" gradientUnits="userSpaceOnUse">
<stop offset="0.326823" stop-color="#FF89B4"/>
<stop offset="0.326923" stop-color="#FF439E"/>
<stop offset="0.687244" stop-color="#FF439E"/>
<stop offset="0.689902" stop-color="#CA008E"/>
</linearGradient>
<pattern id="pattern0_141_42" patternUnits="userSpaceOnUse" patternTransform="matrix(2.98782 0 0 1.50825 45.8383 27.1145)" preserveAspectRatio="none" viewBox="0.0371765 0.0367947 2.98782 1.50825" width="1" height="1">
<use xlink:href="#pattern0_141_42_inner" transform="translate(0 -1.50825)"/>
<use xlink:href="#pattern0_141_42_inner" transform="translate(1.49391 -0.754127)"/>
<g id="pattern0_141_42_inner">
<path d="M0.0388422 0.464347C0.0602943 0.207896 0.283242 0.0171948 0.536813 0.0384059C0.790383 0.059617 0.97855 0.284708 0.957098 0.541159C0.935646 0.797611 0.712698 0.988308 0.459128 0.967097C0.205558 0.945886 0.0173901 0.720799 0.0388422 0.464347Z" fill="#56003C"/>
</g>
<use xlink:href="#pattern0_141_42_inner" transform="translate(1.49391 0.754127)"/>
</pattern></defs>
</svg>
